# xmcd
#
# Track frame offsets:
#	150
#	15193
#	31101
#	46550
#	62601
#	79704
#	94188
#	112804
#	130086
#	149603
#	167291
#	189453
#	202303
#	221595
#	238392
#
# Disc length: 3433 seconds
#
# Revision: 1
# Processed by: cddbd v1.5.2PL0 Copyright (c) Steve Scherf et al.
# Submitted via: EZCDAudioConverter 3.1.0.1
#
DISCID=c10d670f
DTITLE=Adrians Kukuvass - Atgriežoties
DYEAR=1900
DGENRE=
TTITLE0=Atgriežoties
TTITLE1=Jūlijnakts
TTITLE2=Krīt visbaltākie sniegi
TTITLE3=Tepat saulītē
TTITLE4=Mūsu naktis
TTITLE5=Kā svētā
TTITLE6=Sen klusums
TTITLE7=Debess miers
TTITLE8=Manas mājas
TTITLE9=Mīļotā
TTITLE10=Laimīte
TTITLE11=Neliec sveci zem pūra
TTITLE12=Pusnaktī
TTITLE13=Dziesmiņa par floksi
TTITLE14=Piezvani man
EXTD=
EXTT0=
EXTT1=
EXTT2=
EXTT3=
EXTT4=
EXTT5=
EXTT6=
EXTT7=
EXTT8=
EXTT9=
EXTT10=
EXTT11=
EXTT12=
EXTT13=
EXTT14=
PLAYORDER=
